<?xml version="1.0" encoding="utf-8"?>
<!-- Generator: Adobe Illustrator 27.0.1, SVG Export Plug-In . SVG Version: 6.00 Build 0)  -->
<svg version="1.1" id="Layer_1" xmlns="http://www.w3.org/2000/svg" xmlns:xlink="http://www.w3.org/1999/xlink" x="0px" y="0px"
	 viewBox="0 0 136 32" style="enable-background:new 0 0 136 32;" xml:space="preserve">
<style type="text/css">
	.st0{fill:#E0E0E0;}
	.st1{fill:#806040;}
	.st2{fill:#FFFFFF;}
	.st3{fill:#FF0000;}
	.st4{fill:#403020;}
</style>
<rect class="st0" width="56" height="8"/>
<polygon class="st1" points="0,28 4,32 52,32 56,28 "/>
<rect y="16" class="st2" width="56" height="12"/>
<g>
	<path class="st3" d="M5.6,21.9l-0.6-2H4.9L3.5,27H1.8l2-9.8h1.9l1.8,5.1l0.6,2.1h0.1l1.4-7.1h1.7l-2,9.8H7.4L5.6,21.9z"/>
	<path class="st3" d="M10.6,24.1c0-2.6,1.6-4.6,3.8-4.6c1.7,0,2.8,1.1,2.8,3c0,2.6-1.6,4.6-3.8,4.6C11.7,27.2,10.6,26.1,10.6,24.1z
		 M15.2,24l0.3-1.2c0-0.1,0.1-0.3,0.1-0.5c0-0.8-0.4-1.3-1.2-1.3c-0.8,0-1.5,0.6-1.7,1.8L12.3,24c0,0.1-0.1,0.3-0.1,0.5
		c0,0.8,0.4,1.3,1.2,1.3C14.3,25.8,15,25.1,15.2,24z"/>
	<path class="st3" d="M20,19.7l-0.9,4.4C19,24.4,19,24.6,19,24.8c0,0.6,0.2,0.9,0.8,0.9c0.5,0,0.9-0.3,1.2-0.6
		c0.4-0.4,0.6-1,0.8-1.5l0.8-3.9h1.7l-1.2,5.9H24L23.7,27h-1.2c-0.7,0-1.1-0.4-1.1-1c0-0.1,0-0.3,0-0.4v-0.2h-0.1
		c-0.5,1.1-1.2,1.8-2.3,1.8c-1.1,0-1.8-0.7-1.8-1.9c0-0.3,0-0.7,0.1-1l0.9-4.5L20,19.7L20,19.7z"/>
	<path class="st3" d="M23.8,25.9l1.1-1c0.4,0.6,1,0.9,1.8,0.9c0.9,0,1.4-0.4,1.4-1c0-0.3-0.2-0.6-0.8-0.7L26.6,24
		c-1.2-0.2-1.9-0.8-1.9-1.9c0-1.3,0.9-2.5,2.9-2.5c1.1,0,2,0.4,2.6,1.1l-1.1,1c-0.4-0.4-0.9-0.7-1.6-0.7c-0.8,0-1.2,0.4-1.2,0.9
		c0,0.4,0.2,0.6,0.8,0.7l0.7,0.1c1.2,0.2,2,0.8,2,1.9c0,1.4-1.1,2.6-3.1,2.6C25.4,27.2,24.4,26.7,23.8,25.9z"/>
	<path d="M34.6,19.1V27h-2.1v-7.9h-2.6v-1.9h7.4v1.9H34.6z"/>
	<path d="M36.5,23.3c0-2.3,1.2-3.8,3.4-3.8c2.4,0,3.4,1.8,3.4,3.8v0.6h-4.7V24c0,1,0.5,1.6,1.6,1.6c0.9,0,1.3-0.4,1.8-0.9l1,1.3
		c-0.7,0.8-1.7,1.2-3.1,1.2C37.8,27.2,36.5,25.7,36.5,23.3z M38.7,22.5v0.1h2.6v-0.1c0-0.9-0.4-1.5-1.2-1.5
		C39.2,21,38.7,21.6,38.7,22.5z"/>
	<path d="M46.2,27c-1.4,0-2.1-0.7-2.1-2v-8.3h2.1v8.8h0.9V27H46.2z"/>
	<path d="M47.2,23.3c0-2.3,1.2-3.8,3.4-3.8c2.4,0,3.4,1.8,3.4,3.8v0.6h-4.7V24c0,1,0.5,1.6,1.6,1.6c0.9,0,1.3-0.4,1.8-0.9l1,1.3
		c-0.7,0.8-1.7,1.2-3.1,1.2C48.5,27.2,47.2,25.7,47.2,23.3z M49.4,22.5v0.1H52v-0.1c0-0.9-0.4-1.5-1.2-1.5
		C49.9,21,49.4,21.6,49.4,22.5z"/>
</g>
<polygon class="st4" points="56,16 0,16 4,12 52,12 "/>
<polygon class="st1" points="0,16 0,12 4,8 52,8 56,12 56,16 52,12 4,12 "/>
<g>
	<path d="M62.6,11.8c0-3.1,1.3-4.3,3.3-4.3c2,0,3.3,1.2,3.3,4.3s-1.3,4.3-3.3,4.3C63.9,16.1,62.6,14.9,62.6,11.8z M67.4,12.9v-2.2
		c0-1.1-0.6-1.7-1.5-1.7c-0.9,0-1.5,0.6-1.5,1.7v2.2c0,1.1,0.6,1.7,1.5,1.7C66.9,14.6,67.4,14,67.4,12.9z"/>
	<path d="M70.5,9.7h1.7v1h0.2c0.1-0.7,0.8-1.2,1.4-1.2c1.5,0,2.1,1.1,2.1,3.3c0,2.2-0.6,3.3-2.1,3.3c-0.7,0-1.3-0.5-1.4-1.2h-0.2
		v3.4h-1.7V9.7z M74.2,13.6v-1.6c0-0.7-0.4-1.1-1-1.1c-0.6,0-1,0.3-1,0.8v2.2c0,0.6,0.4,0.8,1,0.8C73.8,14.8,74.2,14.4,74.2,13.6z"
		/>
	<path d="M76.8,12.9c0-2.2,0.9-3.3,2.7-3.3c1.8,0,2.7,1.1,2.7,3.3v0.4h-3.6v0.4c0,0.7,0.5,1.2,1.2,1.2c0.6,0,1-0.3,1.4-0.8l0.9,1
		c-0.5,0.7-1.3,1.1-2.4,1.1C77.9,16.1,76.8,15.1,76.8,12.9z M78.5,11.9v0.4h1.8v-0.4c0-0.7-0.3-1.1-0.9-1.1
		C78.8,10.8,78.5,11.2,78.5,11.9z"/>
	<path d="M83.2,16V9.7h1.7v1.1h0.2c0.2-0.7,0.6-1.2,1.5-1.2c1.1,0,1.8,0.8,1.8,2.2V16h-1.7v-4c0-0.8-0.2-1.1-0.8-1.1
		c-0.5,0-0.9,0.3-0.9,0.9V16H83.2z"/>
	<path d="M89.5,13.1v-1.6h3.2v1.6H89.5z"/>
	<path d="M93.4,14.8l1.1-1.1c0.5,0.6,1.1,0.9,1.9,0.9c0.8,0,1.2-0.3,1.2-1.1c0-0.6-0.3-0.9-0.9-1l-0.8-0.1c-1.5-0.3-2.3-1.1-2.3-2.5
		c0-1.6,1-2.5,2.8-2.5c1.2,0,2.1,0.4,2.7,1.2l-1.1,1.1C97.7,9.2,97.2,9,96.5,9c-0.8,0-1.1,0.3-1.1,0.9c0,0.6,0.3,0.8,0.8,0.9L97,11
		c1.6,0.3,2.3,1,2.3,2.4c0,1.8-1,2.7-3,2.7C95.1,16.1,94.1,15.7,93.4,14.8z"/>
	<path d="M100.1,12.9c0-2.2,0.9-3.3,2.7-3.3c1.8,0,2.7,1.1,2.7,3.3s-0.9,3.3-2.7,3.3C101.1,16.1,100.1,15.1,100.1,12.9z M103.7,13.7
		V12c0-0.7-0.3-1.1-0.9-1.1s-0.9,0.4-0.9,1.1v1.8c0,0.7,0.3,1.1,0.9,1.1S103.7,14.5,103.7,13.7z"/>
	<path d="M109.9,14.9h-0.2c-0.2,0.7-0.6,1.2-1.5,1.2c-1.1,0-1.7-0.8-1.7-2.2V9.7h1.7v4c0,0.8,0.2,1.1,0.8,1.1c0.5,0,0.9-0.3,0.9-0.9
		V9.7h1.7V16h-1.7V14.9z"/>
	<path d="M113.1,16V9.7h1.7V11h0.2c0.1-0.7,0.4-1.3,1.3-1.3h0.3v1.7h-0.4c-0.9,0-1.3,0.2-1.3,0.9V16H113.1z"/>
	<path d="M117.1,12.9c0-2.2,0.9-3.3,2.7-3.3c1.2,0,2,0.6,2.3,1.6l-1.4,0.6c-0.1-0.6-0.3-0.9-0.9-0.9c-0.6,0-0.9,0.4-0.9,1.1v1.8
		c0,0.7,0.3,1.1,0.9,1.1c0.6,0,0.9-0.3,1-0.9l1.3,0.6c-0.3,1.2-1.1,1.7-2.3,1.7C118,16.1,117.1,15.1,117.1,12.9z"/>
	<path d="M122.6,12.9c0-2.2,0.9-3.3,2.7-3.3c1.8,0,2.7,1.1,2.7,3.3v0.4h-3.6v0.4c0,0.7,0.5,1.2,1.2,1.2c0.6,0,1-0.3,1.4-0.8l0.9,1
		c-0.5,0.7-1.3,1.1-2.4,1.1C123.8,16.1,122.6,15.1,122.6,12.9z M124.4,11.9v0.4h1.8v-0.4c0-0.7-0.3-1.1-0.9-1.1
		S124.4,11.2,124.4,11.9z"/>
	<path d="M64.7,28l-2.5-8.4H64l1.3,5.1l0.3,1.7h0.2l0.3-1.7l1.3-5.1h1.7L66.7,28H64.7z"/>
	<path d="M69.9,20.1v-0.3c0-0.5,0.3-0.8,1-0.8s1,0.3,1,0.8v0.3c0,0.5-0.3,0.8-1,0.8S69.9,20.6,69.9,20.1z M70,21.7h1.7V28H70V21.7z"
		/>
	<path d="M76.6,27h-0.2c-0.1,0.7-0.8,1.2-1.4,1.2c-1.5,0-2.1-1.1-2.1-3.3s0.7-3.3,2.1-3.3c0.7,0,1.3,0.5,1.4,1.2h0.2v-3.6h1.7V28
		h-1.7V27z M76.6,25.9v-2.2c0-0.6-0.4-0.8-1-0.8c-0.6,0-1,0.4-1,1.1v1.6c0,0.7,0.4,1.1,1,1.1C76.2,26.8,76.6,26.5,76.6,25.9z"/>
	<path d="M79.4,24.9c0-2.2,0.9-3.3,2.7-3.3c1.8,0,2.7,1.1,2.7,3.3v0.4h-3.6v0.4c0,0.7,0.5,1.2,1.2,1.2c0.6,0,1-0.3,1.4-0.8l0.9,1
		c-0.5,0.7-1.3,1.1-2.4,1.1C80.5,28.1,79.4,27.1,79.4,24.9z M81.1,23.9v0.4H83v-0.4c0-0.7-0.3-1.1-0.9-1.1S81.1,23.2,81.1,23.9z"/>
	<path d="M85.5,24.9c0-2.2,0.9-3.3,2.7-3.3c1.8,0,2.7,1.1,2.7,3.3s-0.9,3.3-2.7,3.3C86.4,28.1,85.5,27.1,85.5,24.9z M89.1,25.7V24
		c0-0.7-0.3-1.1-0.9-1.1s-0.9,0.4-0.9,1.1v1.8c0,0.7,0.3,1.1,0.9,1.1S89.1,26.5,89.1,25.7z"/>
	<path d="M99.1,24.5h-2.8V28h-1.7v-8.4h1.7V23h2.8v-3.4h1.7V28h-1.7V24.5z"/>
	<path d="M102,24.9c0-2.2,0.9-3.3,2.7-3.3c1.8,0,2.7,1.1,2.7,3.3s-0.9,3.3-2.7,3.3C102.9,28.1,102,27.1,102,24.9z M105.6,25.7V24
		c0-0.7-0.3-1.1-0.9-1.1c-0.6,0-0.9,0.4-0.9,1.1v1.8c0,0.7,0.3,1.1,0.9,1.1C105.3,26.8,105.6,26.5,105.6,25.7z"/>
	<path d="M107.9,27l1-1c0.4,0.5,0.9,0.8,1.5,0.8c0.5,0,0.8-0.2,0.8-0.6c0-0.3-0.2-0.5-0.5-0.6l-0.6-0.1c-1.4-0.3-1.9-0.8-1.9-1.9
		c0-1.3,0.8-2,2.3-2c1,0,1.7,0.3,2.3,0.9l-1,1c-0.3-0.4-0.8-0.6-1.3-0.6c-0.5,0-0.7,0.2-0.7,0.6c0,0.3,0.2,0.5,0.6,0.6l0.7,0.1
		c1.3,0.2,1.9,0.8,1.9,1.8c0,1.3-0.9,2.1-2.4,2.1C109.4,28.1,108.6,27.8,107.9,27z"/>
	<path d="M115.8,28c-1.2,0-1.6-0.5-1.6-1.6V23h-0.8v-1.3h0.4c0.4,0,0.6-0.2,0.6-0.6V20h1.5v1.7h1.1V23h-1.1v3.7h1V28H115.8z"/>
	<path d="M117.8,20.1v-0.3c0-0.5,0.3-0.8,1-0.8s1,0.3,1,0.8v0.3c0,0.5-0.3,0.8-1,0.8S117.8,20.6,117.8,20.1z M117.9,21.7h1.7V28
		h-1.7V21.7z"/>
	<path d="M121.1,28v-6.3h1.7v1.1h0.2c0.2-0.7,0.6-1.2,1.5-1.2c1.1,0,1.8,0.8,1.8,2.2V28h-1.7v-4c0-0.8-0.2-1.1-0.8-1.1
		c-0.5,0-0.9,0.3-0.9,0.9V28H121.1z"/>
	<path d="M129.8,30.5c-2.1,0-2.7-0.6-2.7-1.5c0-0.6,0.4-1,1.1-1.1v-0.3c-0.6-0.1-0.9-0.5-0.9-1.1c0-0.6,0.5-0.9,1.1-1v-0.2
		c-0.7-0.3-1-0.9-1-1.8c0-1.3,0.7-2.1,2.5-2.1c0.3,0,0.7,0.1,1,0.2v-0.2c0-0.6,0.3-0.9,0.9-0.9h0.9v1.3h-1.3V22c0.6,0.3,1,0.9,1,1.7
		c0,1.3-0.7,2.1-2.5,2.1c-0.4,0-0.7,0-1.1-0.1c-0.1,0.1-0.2,0.3-0.2,0.5c0,0.3,0.2,0.5,0.7,0.5h1.7c1.4,0,2,0.7,2,1.8
		C132.9,29.8,132.2,30.5,129.8,30.5z M130.4,28.1h-2c-0.1,0.2-0.2,0.4-0.2,0.6c0,0.5,0.3,0.7,1.2,0.7h0.7c0.9,0,1.2-0.2,1.2-0.7
		C131.3,28.3,131.1,28.1,130.4,28.1z M130.7,23.8v-0.2c0-0.6-0.3-0.9-0.9-0.9c-0.6,0-0.9,0.3-0.9,0.9v0.2c0,0.6,0.3,0.9,0.9,0.9
		C130.4,24.7,130.7,24.4,130.7,23.8z"/>
</g>
</svg>
