<?xml version="1.0" encoding="utf-8"?>
<!-- Generator: Adobe Illustrator 27.0.1, SVG Export Plug-In . SVG Version: 6.00 Build 0)  -->
<svg version="1.1" id="Layer_1" xmlns="http://www.w3.org/2000/svg" xmlns:xlink="http://www.w3.org/1999/xlink" x="0px" y="0px"
	 viewBox="0 0 64 32" style="enable-background:new 0 0 64 32;" xml:space="preserve">
<style type="text/css">
	.st0{fill:#E0E0E0;}
	.st1{fill:#806040;}
	.st2{fill:#FFFFFF;}
	.st3{fill:#FF0000;}
	.st4{fill:#403020;}
</style>
<rect x="4" class="st0" width="56" height="8"/>
<polygon class="st1" points="4,28 8,32 56,32 60,28 "/>
<rect x="4" y="16" class="st2" width="56" height="12"/>
<g>
	<path class="st3" d="M9.6,21.9L9,19.9H8.9L7.5,27H5.8l2-9.8h1.9l1.8,5.1l0.6,2.1h0.1l1.4-7.1h1.7l-2,9.8h-1.9L9.6,21.9z"/>
	<path class="st3" d="M14.6,24.1c0-2.6,1.6-4.6,3.8-4.6c1.7,0,2.8,1.1,2.8,3c0,2.6-1.6,4.6-3.8,4.6C15.7,27.2,14.6,26.1,14.6,24.1z
		 M19.2,24l0.3-1.2c0-0.1,0.1-0.3,0.1-0.5c0-0.8-0.4-1.3-1.2-1.3c-0.8,0-1.5,0.6-1.7,1.8L16.3,24c0,0.1-0.1,0.3-0.1,0.5
		c0,0.8,0.4,1.3,1.2,1.3C18.3,25.8,19,25.1,19.2,24z"/>
	<path class="st3" d="M24,19.7l-0.9,4.4c-0.1,0.3-0.1,0.5-0.1,0.7c0,0.6,0.2,0.9,0.8,0.9c0.5,0,0.9-0.3,1.2-0.6
		c0.4-0.4,0.6-1,0.8-1.5l0.8-3.9h1.7l-1.2,5.9H28L27.7,27h-1.2c-0.7,0-1.1-0.4-1.1-1c0-0.1,0-0.3,0-0.4l0-0.2h-0.1
		c-0.5,1.1-1.2,1.8-2.3,1.8c-1.1,0-1.8-0.7-1.8-1.9c0-0.3,0-0.7,0.1-1l0.9-4.5H24z"/>
	<path class="st3" d="M27.8,25.9l1.1-1c0.4,0.6,1,0.9,1.8,0.9c0.9,0,1.4-0.4,1.4-1c0-0.3-0.2-0.6-0.8-0.7L30.6,24
		c-1.2-0.2-1.9-0.8-1.9-1.9c0-1.3,0.9-2.5,2.9-2.5c1.1,0,2,0.4,2.6,1.1l-1.1,1c-0.4-0.4-0.9-0.7-1.6-0.7c-0.8,0-1.2,0.4-1.2,0.9
		c0,0.4,0.2,0.6,0.8,0.7l0.7,0.1c1.2,0.2,2,0.8,2,1.9c0,1.4-1.1,2.6-3.1,2.6C29.4,27.2,28.4,26.7,27.8,25.9z"/>
	<path d="M38.6,19.1V27h-2.1v-7.9h-2.6v-1.9h7.4v1.9H38.6z"/>
	<path d="M40.5,23.3c0-2.3,1.2-3.8,3.4-3.8c2.4,0,3.4,1.8,3.4,3.8v0.6h-4.7V24c0,1,0.5,1.6,1.6,1.6c0.9,0,1.3-0.4,1.8-0.9l1,1.3
		c-0.7,0.8-1.7,1.2-3.1,1.2C41.8,27.2,40.5,25.7,40.5,23.3z M42.7,22.5v0.1h2.6v-0.1c0-0.9-0.4-1.5-1.2-1.5
		C43.2,21,42.7,21.6,42.7,22.5z"/>
	<path d="M50.2,27c-1.4,0-2.1-0.7-2.1-2v-8.3h2.1v8.8h0.9V27H50.2z"/>
	<path d="M51.2,23.3c0-2.3,1.2-3.8,3.4-3.8c2.4,0,3.4,1.8,3.4,3.8v0.6h-4.7V24c0,1,0.5,1.6,1.6,1.6c0.9,0,1.3-0.4,1.8-0.9l1,1.3
		c-0.7,0.8-1.7,1.2-3.1,1.2C52.5,27.2,51.2,25.7,51.2,23.3z M53.4,22.5v0.1H56v-0.1c0-0.9-0.4-1.5-1.2-1.5
		C53.9,21,53.4,21.6,53.4,22.5z"/>
</g>
<polygon class="st4" points="60,16 4,16 8,12 56,12 "/>
<polygon class="st1" points="4,16 4,12 8,8 56,8 60,12 60,16 56,12 8,12 "/>
</svg>
