<?xml version="1.0" encoding="utf-8"?>
<!-- Generator: Adobe Illustrator 27.0.1, SVG Export Plug-In . SVG Version: 6.00 Build 0)  -->
<svg version="1.1" id="Layer_1" xmlns="http://www.w3.org/2000/svg" xmlns:xlink="http://www.w3.org/1999/xlink" x="0px" y="0px"
	 viewBox="0 0 64 64" style="enable-background:new 0 0 64 64;" xml:space="preserve">
<style type="text/css">
	.st0{fill:#FFFFFF;}
	.st1{fill:#404040;}
	.st2{fill:#A0A0A0;}
</style>
<polygon class="st0" points="56,20 52,28 56,36 56,48 44,64 20,64 8,48 8,36 12,28 8,20 8,8 16,0 48,0 56,8 "/>
<polygon class="st1" points="28,24 24,28 16,28 12,24 16,20 24,20 "/>
<polygon class="st1" points="52,24 48,28 40,28 36,24 40,20 48,20 "/>
<polygon points="36,16 36,20 52,20 48,16 "/>
<polygon points="28,16 28,20 12,20 16,16 "/>
<polygon class="st2" points="32,40 40,32 32,36 24,32 "/>
<polygon points="32,40 36,44 44,44 48,40 48,36 44,32 40,36 44,36 44,40 "/>
<polygon points="32,40 28,44 20,44 16,40 16,36 20,32 24,36 20,36 20,40 "/>
<polygon class="st1" points="52,36 52,40 40,52 24,52 12,40 12,36 24,48 28,48 32,44 36,48 40,48 "/>
</svg>
